<svg width="12" height="12" viewBox="0 0 12 12" fill="none" xmlns="http://www.w3.org/2000/svg">
<path d="M4.8371 12C4.32342 12 3.90963 11.7684 3.55291 11.3052L0.356718 7.29554C0.11415 6.99156 0 6.6731 0 6.34017C0 5.60193 0.570749 5.05187 1.26992 5.05187C1.71225 5.05187 2.08323 5.25452 2.35434 5.63088L4.78002 8.77201L9.56005 0.723764C9.83115 0.260555 10.2449 0 10.6873 0C11.4007 0 12 0.535585 12 1.2304C12 1.56333 11.8288 1.91074 11.6718 2.17129L6.06421 11.2762C5.77883 11.7394 5.3365 12 4.8371 12Z" fill="white"/>
</svg>
