<svg width="8" height="12" viewBox="0 0 8 12" fill="none" xmlns="http://www.w3.org/2000/svg">
<path d="M0 7.43445C0 7.88689 0.295165 8.18509 0.763359 8.18509H3.31807V9.99486C3.31807 11.0129 3.79644 12 4 12C4.19338 12 4.68193 11.0129 4.68193 9.99486V8.18509H7.22646C7.69466 8.18509 8 7.88689 8 7.43445C8 6.34447 7.09415 5.22365 5.67939 4.69923L5.51654 2.33419C6.24936 1.9126 6.83969 1.43959 7.10433 1.10026C7.23664 0.92545 7.30789 0.730077 7.30789 0.565553C7.30789 0.236504 7.06361 0 6.68702 0L1.31298 0C0.936387 0 0.681934 0.236504 0.681934 0.565553C0.681934 0.730077 0.75318 0.935733 0.905852 1.11054C1.17048 1.44987 1.75064 1.9126 2.48346 2.33419L2.32061 4.69923C0.905852 5.22365 0 6.34447 0 7.43445Z" fill="white"/>
</svg>
